<svg version="1.1" id="Layer_1" xmlns="http://www.w3.org/2000/svg" xmlns:xlink="http://www.w3.org/1999/xlink" x="0px" y="0px"
	 width="64px" height="64px" viewBox="0 0 64 64" enable-background="new 0 0 64 64" xml:space="preserve">
<path fill="transparent" opacity="1.000000" stroke="none"
	d="
M44.000557,65.000000
	C29.333736,65.000000 15.167089,65.000000 1.000331,65.000000
	C1.000221,43.666843 1.000221,22.333683 1.000110,1.000394
	C22.333130,1.000262 43.666260,1.000262 64.999542,1.000131
	C64.999695,22.333101 64.999695,43.666203 64.999847,64.999649
	C58.166912,65.000000 51.333820,65.000000 44.000557,65.000000
M45.839859,51.264832
	C51.537476,54.230282 53.986881,52.784573 53.996494,46.421139
	C54.009823,37.599976 53.931694,28.777973 54.035553,19.958014
	C54.073597,16.727139 53.506886,13.751041 49.974461,13.155515
	C46.462719,12.563474 42.727921,12.356770 40.980042,16.896618
	C38.513424,23.303293 35.798828,29.614492 32.953857,36.542126
	C30.052855,29.414261 27.392792,22.881121 24.734985,16.347063
	C23.100210,12.328062 19.569365,12.727861 16.379148,13.109818
	C13.112221,13.500961 11.948450,15.881763 11.973620,19.096201
	C12.049203,28.748978 12.129735,38.405388 11.930642,48.054649
	C11.861280,51.416313 13.903175,52.751629 16.325489,52.812054
	C19.040606,52.879791 21.220028,51.498375 21.060518,47.911396
	C20.824032,42.593430 20.999321,37.257156 20.999321,30.522051
	C23.686586,36.817471 25.581339,41.791103 27.940126,46.533955
	C28.965364,48.595421 30.944517,50.182472 32.490417,51.984993
	C34.316414,50.381138 36.822525,49.118965 37.833912,47.105850
	C40.323177,42.151081 42.125290,36.851086 44.203728,31.689919
	C44.543404,31.758480 44.883083,31.827040 45.222759,31.895601
	C45.222759,38.152096 45.222759,44.408588 45.839859,51.264832
z"/>
<path fill="#FC6600" opacity="1.000000" stroke="none"
	d="
M45.531311,50.964958
	C45.222759,44.408588 45.222759,38.152096 45.222759,31.895601
	C44.883083,31.827040 44.543404,31.758480 44.203728,31.689919
	C42.125290,36.851086 40.323177,42.151081 37.833912,47.105850
	C36.822525,49.118965 34.316414,50.381138 32.490417,51.984993
	C30.944517,50.182472 28.965364,48.595421 27.940126,46.533955
	C25.581339,41.791103 23.686586,36.817471 20.999321,30.522051
	C20.999321,37.257156 20.824032,42.593430 21.060518,47.911396
	C21.220028,51.498375 19.040606,52.879791 16.325489,52.812054
	C13.903175,52.751629 11.861280,51.416313 11.930642,48.054649
	C12.129735,38.405388 12.049203,28.748978 11.973620,19.096201
	C11.948450,15.881763 13.112221,13.500961 16.379148,13.109818
	C19.569365,12.727861 23.100210,12.328062 24.734985,16.347063
	C27.392792,22.881121 30.052855,29.414261 32.953857,36.542126
	C35.798828,29.614492 38.513424,23.303293 40.980042,16.896618
	C42.727921,12.356770 46.462719,12.563474 49.974461,13.155515
	C53.506886,13.751041 54.073597,16.727139 54.035553,19.958014
	C53.931694,28.777973 54.009823,37.599976 53.996494,46.421139
	C53.986881,52.784573 51.537476,54.230282 45.531311,50.964958
z"/>
</svg>
